<?xml version="1.0" encoding="UTF-8" standalone="no"?>
<!DOCTYPE svg PUBLIC "-//W3C//DTD SVG 1.1//EN"
 "http://www.w3.org/Graphics/SVG/1.1/DTD/svg11.dtd">
<!-- Generated by graphviz version 2.43.0 (0)
 -->
<!-- Title: %3 Pages: 1 -->
<svg width="989pt" height="127pt"
 viewBox="0.00 0.00 989.00 127.00" xmlns="http://www.w3.org/2000/svg" xmlns:xlink="http://www.w3.org/1999/xlink">
<g id="graph0" class="graph" transform="scale(1 1) rotate(0) translate(4 123)">
<title>%3</title>
<polygon fill="white" stroke="transparent" points="-4,4 -4,-123 985,-123 985,4 -4,4"/>
<!-- 140008698492432 -->
<g id="node1" class="node">
<title>140008698492432</title>
<polygon fill="none" stroke="black" points="374,-82.5 374,-118.5 619,-118.5 619,-82.5 374,-82.5"/>
<text text-anchor="middle" x="387" y="-96.8" font-family="Times,serif" font-size="14.00">b</text>
<polyline fill="none" stroke="black" points="400,-82.5 400,-118.5 "/>
<text text-anchor="middle" x="455.5" y="-96.8" font-family="Times,serif" font-size="14.00">data 31.9969</text>
<polyline fill="none" stroke="black" points="511,-82.5 511,-118.5 "/>
<text text-anchor="middle" x="565" y="-96.8" font-family="Times,serif" font-size="14.00">grad &#45;0.0744</text>
</g>
<!-- 140008695351888+ -->
<g id="node5" class="node">
<title>140008695351888+</title>
<ellipse fill="none" stroke="black" cx="682" cy="-72.5" rx="27" ry="18"/>
<text text-anchor="middle" x="682" y="-68.8" font-family="Times,serif" font-size="14.00">+</text>
</g>
<!-- 140008698492432&#45;&gt;140008695351888+ -->
<g id="edge4" class="edge">
<title>140008698492432&#45;&gt;140008695351888+</title>
<path fill="none" stroke="black" d="M615.53,-82.49C626.23,-80.86 636.41,-79.3 645.42,-77.93"/>
<polygon fill="black" stroke="black" points="646.05,-81.37 655.41,-76.4 645,-74.45 646.05,-81.37"/>
</g>
<!-- 140008695352208 -->
<g id="node2" class="node">
<title>140008695352208</title>
<polygon fill="none" stroke="black" points="378.5,-27.5 378.5,-63.5 614.5,-63.5 614.5,-27.5 378.5,-27.5"/>
<text text-anchor="middle" x="389" y="-41.8" font-family="Times,serif" font-size="14.00"> </text>
<polyline fill="none" stroke="black" points="399.5,-27.5 399.5,-63.5 "/>
<text text-anchor="middle" x="455" y="-41.8" font-family="Times,serif" font-size="14.00">data 17.9979</text>
<polyline fill="none" stroke="black" points="510.5,-27.5 510.5,-63.5 "/>
<text text-anchor="middle" x="562.5" y="-41.8" font-family="Times,serif" font-size="14.00">grad 0.0000</text>
</g>
<!-- 140008695352208&#45;&gt;140008695351888+ -->
<g id="edge3" class="edge">
<title>140008695352208&#45;&gt;140008695351888+</title>
<path fill="none" stroke="black" d="M614.75,-62.75C625.66,-64.36 636.04,-65.88 645.21,-67.23"/>
<polygon fill="black" stroke="black" points="644.99,-70.74 655.39,-68.73 646,-63.81 644.99,-70.74"/>
</g>
<!-- 140008695352208+ -->
<g id="node3" class="node">
<title>140008695352208+</title>
<ellipse fill="none" stroke="black" cx="311" cy="-45.5" rx="27" ry="18"/>
<text text-anchor="middle" x="311" y="-41.8" font-family="Times,serif" font-size="14.00">+</text>
</g>
<!-- 140008695352208+&#45;&gt;140008695352208 -->
<g id="edge1" class="edge">
<title>140008695352208+&#45;&gt;140008695352208</title>
<path fill="none" stroke="black" d="M338.29,-45.5C346.86,-45.5 357.03,-45.5 368,-45.5"/>
<polygon fill="black" stroke="black" points="368.29,-49 378.29,-45.5 368.29,-42 368.29,-49"/>
</g>
<!-- 140008695351888 -->
<g id="node4" class="node">
<title>140008695351888</title>
<polygon fill="none" stroke="black" points="745,-54.5 745,-90.5 981,-90.5 981,-54.5 745,-54.5"/>
<text text-anchor="middle" x="755.5" y="-68.8" font-family="Times,serif" font-size="14.00"> </text>
<polyline fill="none" stroke="black" points="766,-54.5 766,-90.5 "/>
<text text-anchor="middle" x="821.5" y="-68.8" font-family="Times,serif" font-size="14.00">data 49.9948</text>
<polyline fill="none" stroke="black" points="877,-54.5 877,-90.5 "/>
<text text-anchor="middle" x="929" y="-68.8" font-family="Times,serif" font-size="14.00">grad 0.0000</text>
</g>
<!-- 140008695351888+&#45;&gt;140008695351888 -->
<g id="edge2" class="edge">
<title>140008695351888+&#45;&gt;140008695351888</title>
<path fill="none" stroke="black" d="M709.03,-72.5C716.58,-72.5 725.38,-72.5 734.87,-72.5"/>
<polygon fill="black" stroke="black" points="734.99,-76 744.99,-72.5 734.99,-69 734.99,-76"/>
</g>
<!-- 140008695291536 -->
<g id="node6" class="node">
<title>140008695291536</title>
<polygon fill="none" stroke="black" points="6,-55.5 6,-91.5 242,-91.5 242,-55.5 6,-55.5"/>
<text text-anchor="middle" x="16.5" y="-69.8" font-family="Times,serif" font-size="14.00"> </text>
<polyline fill="none" stroke="black" points="27,-55.5 27,-91.5 "/>
<text text-anchor="middle" x="82.5" y="-69.8" font-family="Times,serif" font-size="14.00">data 10.0000</text>
<polyline fill="none" stroke="black" points="138,-55.5 138,-91.5 "/>
<text text-anchor="middle" x="190" y="-69.8" font-family="Times,serif" font-size="14.00">grad 0.0000</text>
</g>
<!-- 140008695291536&#45;&gt;140008695352208+ -->
<g id="edge5" class="edge">
<title>140008695291536&#45;&gt;140008695352208+</title>
<path fill="none" stroke="black" d="M242.16,-55.77C253.75,-54.01 264.78,-52.34 274.45,-50.88"/>
<polygon fill="black" stroke="black" points="275,-54.34 284.37,-49.38 273.96,-47.42 275,-54.34"/>
</g>
<!-- 140008699005328 -->
<g id="node7" class="node">
<title>140008699005328</title>
<polygon fill="none" stroke="black" points="0,-0.5 0,-36.5 248,-36.5 248,-0.5 0,-0.5"/>
<text text-anchor="middle" x="19" y="-14.8" font-family="Times,serif" font-size="14.00">w0</text>
<polyline fill="none" stroke="black" points="38,-0.5 38,-36.5 "/>
<text text-anchor="middle" x="89" y="-14.8" font-family="Times,serif" font-size="14.00">data 1.7998</text>
<polyline fill="none" stroke="black" points="140,-0.5 140,-36.5 "/>
<text text-anchor="middle" x="194" y="-14.8" font-family="Times,serif" font-size="14.00">grad &#45;0.0049</text>
</g>
<!-- 140008699005328&#45;&gt;140008695352208+ -->
<g id="edge6" class="edge">
<title>140008699005328&#45;&gt;140008695352208+</title>
<path fill="none" stroke="black" d="M248.14,-36.47C257.57,-37.85 266.53,-39.16 274.55,-40.33"/>
<polygon fill="black" stroke="black" points="274.1,-43.8 284.51,-41.78 275.12,-36.87 274.1,-43.8"/>
</g>
</g>
</svg>
